<svg width="16" height="16" viewBox="0 0 16 16" fill="none" xmlns="http://www.w3.org/2000/svg">
<path fill-rule="evenodd" clip-rule="evenodd" d="M13.8636 2.24351C13.8636 3.48256 12.8585 4.48702 11.6187 4.48702C10.3788 4.48702 9.37376 3.48256 9.37376 2.24351C9.37376 1.00445 10.3788 0 11.6187 0C12.8585 0 13.8636 1.00445 13.8636 2.24351ZM4.48981 7.16998C4.48981 8.40904 3.48473 9.41349 2.2449 9.41349C1.00508 9.41349 0 8.40904 0 7.16998C0 5.93092 1.00508 4.92647 2.2449 4.92647C3.48473 4.92647 4.48981 5.93092 4.48981 7.16998ZM7.32074 12.9574C5.69892 12.6094 4.34281 11.5747 3.58229 10.1095C2.98671 10.3842 2.30866 10.4667 1.65809 10.3476C2.58354 12.6094 4.53523 14.2486 6.92674 14.7614C7.44902 14.8712 7.98963 14.9262 8.52108 14.9262C8.10875 14.3859 7.87968 13.7266 7.86135 13.049L7.79009 13.0378C7.63759 13.0139 7.47917 12.9891 7.32074 12.9574ZM13.3503 12.9665C13.3503 14.2055 12.3452 15.21 11.1054 15.21C9.86559 15.21 8.86052 14.2055 8.86052 12.9665C8.86052 11.7274 9.86559 10.723 11.1054 10.723C12.3452 10.723 13.3503 11.7274 13.3503 12.9665ZM14.2393 12.1424C14.9356 11.2633 15.4304 10.2193 15.6687 9.11133C16.081 7.17916 15.6961 5.15542 14.6058 3.51629C14.3492 4.12982 13.9094 4.64262 13.3413 4.99975C13.946 6.1444 14.1293 7.46303 13.8636 8.73588C13.7261 9.35857 13.4971 9.94463 13.1672 10.4757C13.6895 10.897 14.0652 11.483 14.2393 12.1424ZM2.15127 3.94239C2.12382 3.94459 2.09739 3.9467 2.07096 3.9467C3.47288 1.47427 6.22174 0.0182758 9.0439 0.238048C8.74153 0.622649 8.53078 1.07135 8.42999 1.55668C8.4025 1.72151 8.37501 1.88634 8.36585 2.06032C6.59742 2.09695 4.96642 2.96689 3.94935 4.42288C3.63781 4.23058 3.28962 4.09322 2.9231 4.0108C2.7032 3.96502 2.47412 3.93755 2.24505 3.93755C2.21175 3.93755 2.18091 3.94001 2.15127 3.94239Z" fill="#E95420"/>
</svg>
